<svg width="25" height="28" viewBox="0 0 30 30" fill="none" xmlns="http://www.w3.org/2000/svg">
<path d="M25.7858 19.9981C25.6885 19.881 25.593 19.7638 25.4993 19.6507C24.2102 18.0915 23.4303 17.1505 23.4303 12.7366C23.4303 10.4515 22.8837 8.57646 21.8061 7.17021C21.0116 6.13135 19.9376 5.34326 18.5219 4.76084C18.5037 4.75071 18.4874 4.73741 18.4739 4.72158C17.9647 3.0165 16.5713 1.87451 14.9999 1.87451C13.4284 1.87451 12.0356 3.0165 11.5264 4.71982C11.5128 4.73507 11.4968 4.74795 11.479 4.75791C8.17545 6.11787 6.56999 8.72705 6.56999 12.7349C6.56999 17.1505 5.79127 18.0915 4.50104 19.6489C4.40729 19.762 4.31178 19.8768 4.21452 19.9964C3.96327 20.2994 3.80408 20.668 3.7558 21.0587C3.70751 21.4493 3.77215 21.8456 3.94206 22.2007C4.30358 22.9624 5.07409 23.4352 5.95358 23.4352H24.0526C24.928 23.4352 25.6932 22.963 26.0559 22.2048C26.2266 21.8496 26.2918 21.453 26.2439 21.0619C26.1961 20.6708 26.0371 20.3016 25.7858 19.9981Z" fill="#718096"/>
<path d="M14.9996 28.125C15.8463 28.1243 16.6771 27.8945 17.4037 27.4599C18.1304 27.0253 18.7259 26.4021 19.127 25.6564C19.1459 25.6207 19.1552 25.5807 19.1541 25.5403C19.153 25.4999 19.1414 25.4605 19.1205 25.4258C19.0996 25.3912 19.0702 25.3626 19.0349 25.3427C18.9997 25.3229 18.96 25.3125 18.9196 25.3125H11.0809C11.0404 25.3124 11.0006 25.3227 10.9653 25.3425C10.93 25.3623 10.9005 25.391 10.8795 25.4256C10.8586 25.4602 10.847 25.4997 10.8458 25.5401C10.8446 25.5806 10.854 25.6207 10.8729 25.6564C11.274 26.402 11.8694 27.0251 12.5959 27.4597C13.3224 27.8943 14.153 28.1242 14.9996 28.125Z" fill="#718096"/>
</svg>
